<svg width="20" height="20" viewBox="0 0 20 20" fill="none" xmlns="http://www.w3.org/2000/svg">
<g id="interactive/menu">
<g id="Union">
<path d="M2.125 4.87503C1.98693 4.87503 1.875 4.7631 1.875 4.62503V3.37503C1.875 3.23696 1.98693 3.12503 2.125 3.12503H17.875C18.0131 3.12503 18.125 3.23696 18.125 3.37503V4.62503C18.125 4.7631 18.0131 4.87503 17.875 4.87503H2.125ZM2.125 16.875C1.98693 16.875 1.875 16.7631 1.875 16.625V15.375C1.875 15.2369 1.98693 15.125 2.125 15.125H17.875C18.0131 15.125 18.125 15.2369 18.125 15.375V16.625C18.125 16.7631 18.0131 16.875 17.875 16.875H2.125ZM1.875 10.625C1.875 10.7631 1.98693 10.875 2.125 10.875H17.875C18.0131 10.875 18.125 10.7631 18.125 10.625V9.37502C18.125 9.23694 18.0131 9.12502 17.875 9.12502H2.125C1.98693 9.12502 1.875 9.23694 1.875 9.37502V10.625Z" fill="#101114"/>
</g>
</g>
</svg>
