<svg width="164" height="20" viewBox="0 0 164 20" fill="none" xmlns="http://www.w3.org/2000/svg">
<path d="M4.35547 10.8184H2.13477V9.65234H4.35547C4.74219 9.65234 5.05469 9.58984 5.29297 9.46484C5.53125 9.33984 5.70508 9.16797 5.81445 8.94922C5.92773 8.72656 5.98438 8.47266 5.98438 8.1875C5.98438 7.91797 5.92773 7.66602 5.81445 7.43164C5.70508 7.19336 5.53125 7.00195 5.29297 6.85742C5.05469 6.71289 4.74219 6.64062 4.35547 6.64062H2.58594V14H1.11523V5.46875H4.35547C5.01562 5.46875 5.57617 5.58594 6.03711 5.82031C6.50195 6.05078 6.85547 6.37109 7.09766 6.78125C7.33984 7.1875 7.46094 7.65234 7.46094 8.17578C7.46094 8.72656 7.33984 9.19922 7.09766 9.59375C6.85547 9.98828 6.50195 10.291 6.03711 10.502C5.57617 10.7129 5.01562 10.8184 4.35547 10.8184ZM8.28711 10.9004V10.7656C8.28711 10.3086 8.35352 9.88477 8.48633 9.49414C8.61914 9.09961 8.81055 8.75781 9.06055 8.46875C9.31445 8.17578 9.62305 7.94922 9.98633 7.78906C10.3535 7.625 10.7676 7.54297 11.2285 7.54297C11.6934 7.54297 12.1074 7.625 12.4707 7.78906C12.8379 7.94922 13.1484 8.17578 13.4023 8.46875C13.6562 8.75781 13.8496 9.09961 13.9824 9.49414C14.1152 9.88477 14.1816 10.3086 14.1816 10.7656V10.9004C14.1816 11.3574 14.1152 11.7812 13.9824 12.1719C13.8496 12.5625 13.6562 12.9043 13.4023 13.1973C13.1484 13.4863 12.8398 13.7129 12.4766 13.877C12.1133 14.0371 11.7012 14.1172 11.2402 14.1172C10.7754 14.1172 10.3594 14.0371 9.99219 13.877C9.62891 13.7129 9.32031 13.4863 9.06641 13.1973C8.8125 12.9043 8.61914 12.5625 8.48633 12.1719C8.35352 11.7812 8.28711 11.3574 8.28711 10.9004ZM9.69922 10.7656V10.9004C9.69922 11.1855 9.72852 11.4551 9.78711 11.709C9.8457 11.9629 9.9375 12.1855 10.0625 12.377C10.1875 12.5684 10.3477 12.7188 10.543 12.8281C10.7383 12.9375 10.9707 12.9922 11.2402 12.9922C11.502 12.9922 11.7285 12.9375 11.9199 12.8281C12.1152 12.7188 12.2754 12.5684 12.4004 12.377C12.5254 12.1855 12.6172 11.9629 12.6758 11.709C12.7383 11.4551 12.7695 11.1855 12.7695 10.9004V10.7656C12.7695 10.4844 12.7383 10.2188 12.6758 9.96875C12.6172 9.71484 12.5234 9.49023 12.3945 9.29492C12.2695 9.09961 12.1094 8.94727 11.9141 8.83789C11.7227 8.72461 11.4941 8.66797 11.2285 8.66797C10.9629 8.66797 10.7324 8.72461 10.5371 8.83789C10.3457 8.94727 10.1875 9.09961 10.0625 9.29492C9.9375 9.49023 9.8457 9.71484 9.78711 9.96875C9.72852 10.2188 9.69922 10.4844 9.69922 10.7656ZM17.0879 12.5938L18.5527 7.66016H19.4551L19.209 9.13672L17.7324 14H16.9238L17.0879 12.5938ZM16.2266 7.66016L17.3691 12.6172L17.4629 14H16.5605L14.8438 7.66016H16.2266ZM20.8262 12.5586L21.9336 7.66016H23.3105L21.5996 14H20.6973L20.8262 12.5586ZM19.6074 7.66016L21.0547 12.5352L21.2363 14H20.4277L18.9336 9.13086L18.6875 7.66016H19.6074ZM27.0664 14.1172C26.5977 14.1172 26.1738 14.041 25.7949 13.8887C25.4199 13.7324 25.0996 13.5156 24.834 13.2383C24.5723 12.9609 24.3711 12.6348 24.2305 12.2598C24.0898 11.8848 24.0195 11.4805 24.0195 11.0469V10.8125C24.0195 10.3164 24.0918 9.86719 24.2363 9.46484C24.3809 9.0625 24.582 8.71875 24.8398 8.43359C25.0977 8.14453 25.4023 7.92383 25.7539 7.77148C26.1055 7.61914 26.4863 7.54297 26.8965 7.54297C27.3496 7.54297 27.7461 7.61914 28.0859 7.77148C28.4258 7.92383 28.707 8.13867 28.9297 8.41602C29.1562 8.68945 29.3242 9.01562 29.4336 9.39453C29.5469 9.77344 29.6035 10.1914 29.6035 10.6484V11.252H24.7051V10.2383H28.209V10.127C28.2012 9.87305 28.1504 9.63477 28.0566 9.41211C27.9668 9.18945 27.8281 9.00977 27.6406 8.87305C27.4531 8.73633 27.2031 8.66797 26.8906 8.66797C26.6562 8.66797 26.4473 8.71875 26.2637 8.82031C26.084 8.91797 25.9336 9.06055 25.8125 9.24805C25.6914 9.43555 25.5977 9.66211 25.5312 9.92773C25.4688 10.1895 25.4375 10.4844 25.4375 10.8125V11.0469C25.4375 11.3242 25.4746 11.582 25.5488 11.8203C25.627 12.0547 25.7402 12.2598 25.8887 12.4355C26.0371 12.6113 26.2168 12.75 26.4277 12.8516C26.6387 12.9492 26.8789 12.998 27.1484 12.998C27.4883 12.998 27.791 12.9297 28.0566 12.793C28.3223 12.6562 28.5527 12.4629 28.748 12.2129L29.4922 12.9336C29.3555 13.1328 29.1777 13.3242 28.959 13.5078C28.7402 13.6875 28.4727 13.834 28.1562 13.9473C27.8438 14.0605 27.4805 14.1172 27.0664 14.1172ZM32.123 8.86719V14H30.7109V7.66016H32.0586L32.123 8.86719ZM34.0625 7.61914L34.0508 8.93164C33.9648 8.91602 33.8711 8.9043 33.7695 8.89648C33.6719 8.88867 33.5742 8.88477 33.4766 8.88477C33.2344 8.88477 33.0215 8.91992 32.8379 8.99023C32.6543 9.05664 32.5 9.1543 32.375 9.2832C32.2539 9.4082 32.1602 9.56055 32.0938 9.74023C32.0273 9.91992 31.9883 10.1211 31.9766 10.3438L31.6543 10.3672C31.6543 9.96875 31.6934 9.59961 31.7715 9.25977C31.8496 8.91992 31.9668 8.62109 32.123 8.36328C32.2832 8.10547 32.4824 7.9043 32.7207 7.75977C32.9629 7.61523 33.2422 7.54297 33.5586 7.54297C33.6445 7.54297 33.7363 7.55078 33.834 7.56641C33.9355 7.58203 34.0117 7.59961 34.0625 7.61914ZM37.625 14.1172C37.1562 14.1172 36.7324 14.041 36.3535 13.8887C35.9785 13.7324 35.6582 13.5156 35.3926 13.2383C35.1309 12.9609 34.9297 12.6348 34.7891 12.2598C34.6484 11.8848 34.5781 11.4805 34.5781 11.0469V10.8125C34.5781 10.3164 34.6504 9.86719 34.7949 9.46484C34.9395 9.0625 35.1406 8.71875 35.3984 8.43359C35.6562 8.14453 35.9609 7.92383 36.3125 7.77148C36.6641 7.61914 37.0449 7.54297 37.4551 7.54297C37.9082 7.54297 38.3047 7.61914 38.6445 7.77148C38.9844 7.92383 39.2656 8.13867 39.4883 8.41602C39.7148 8.68945 39.8828 9.01562 39.9922 9.39453C40.1055 9.77344 40.1621 10.1914 40.1621 10.6484V11.252H35.2637V10.2383H38.7676V10.127C38.7598 9.87305 38.709 9.63477 38.6152 9.41211C38.5254 9.18945 38.3867 9.00977 38.1992 8.87305C38.0117 8.73633 37.7617 8.66797 37.4492 8.66797C37.2148 8.66797 37.0059 8.71875 36.8223 8.82031C36.6426 8.91797 36.4922 9.06055 36.3711 9.24805C36.25 9.43555 36.1562 9.66211 36.0898 9.92773C36.0273 10.1895 35.9961 10.4844 35.9961 10.8125V11.0469C35.9961 11.3242 36.0332 11.582 36.1074 11.8203C36.1855 12.0547 36.2988 12.2598 36.4473 12.4355C36.5957 12.6113 36.7754 12.75 36.9863 12.8516C37.1973 12.9492 37.4375 12.998 37.707 12.998C38.0469 12.998 38.3496 12.9297 38.6152 12.793C38.8809 12.6562 39.1113 12.4629 39.3066 12.2129L40.0508 12.9336C39.9141 13.1328 39.7363 13.3242 39.5176 13.5078C39.2988 13.6875 39.0312 13.834 38.7148 13.9473C38.4023 14.0605 38.0391 14.1172 37.625 14.1172ZM45.1309 12.6875V5H46.5488V14H45.2656L45.1309 12.6875ZM41.0059 10.9004V10.7773C41.0059 10.2969 41.0625 9.85938 41.1758 9.46484C41.2891 9.06641 41.4531 8.72461 41.668 8.43945C41.8828 8.15039 42.1445 7.92969 42.4531 7.77734C42.7617 7.62109 43.1094 7.54297 43.4961 7.54297C43.8789 7.54297 44.2148 7.61719 44.5039 7.76562C44.793 7.91406 45.0391 8.12695 45.2422 8.4043C45.4453 8.67773 45.6074 9.00586 45.7285 9.38867C45.8496 9.76758 45.9355 10.1895 45.9863 10.6543V11.0469C45.9355 11.5 45.8496 11.9141 45.7285 12.2891C45.6074 12.6641 45.4453 12.9883 45.2422 13.2617C45.0391 13.5352 44.791 13.7461 44.498 13.8945C44.209 14.043 43.8711 14.1172 43.4844 14.1172C43.1016 14.1172 42.7559 14.0371 42.4473 13.877C42.1426 13.7168 41.8828 13.4922 41.668 13.2031C41.4531 12.9141 41.2891 12.5742 41.1758 12.1836C41.0625 11.7891 41.0059 11.3613 41.0059 10.9004ZM42.418 10.7773V10.9004C42.418 11.1895 42.4434 11.459 42.4941 11.709C42.5488 11.959 42.6328 12.1797 42.7461 12.3711C42.8594 12.5586 43.0059 12.707 43.1855 12.8164C43.3691 12.9219 43.5879 12.9746 43.8418 12.9746C44.1621 12.9746 44.4258 12.9043 44.6328 12.7637C44.8398 12.623 45.002 12.4336 45.1191 12.1953C45.2402 11.9531 45.3223 11.6836 45.3652 11.3867V10.3262C45.3418 10.0957 45.293 9.88086 45.2188 9.68164C45.1484 9.48242 45.0527 9.30859 44.9316 9.16016C44.8105 9.00781 44.6602 8.89062 44.4805 8.80859C44.3047 8.72266 44.0957 8.67969 43.8535 8.67969C43.5957 8.67969 43.377 8.73438 43.1973 8.84375C43.0176 8.95312 42.8691 9.10352 42.752 9.29492C42.6387 9.48633 42.5547 9.70898 42.5 9.96289C42.4453 10.2168 42.418 10.4883 42.418 10.7773ZM54.3535 10.1445H52.1797L52.168 9.07227H54.0664C54.3867 9.07227 54.6582 9.02539 54.8809 8.93164C55.1074 8.83398 55.2793 8.69531 55.3965 8.51562C55.5137 8.33203 55.5723 8.11133 55.5723 7.85352C55.5723 7.56836 55.5176 7.33594 55.4082 7.15625C55.2988 6.97656 55.1309 6.8457 54.9043 6.76367C54.6816 6.68164 54.3965 6.64062 54.0488 6.64062H52.625V14H51.1543V5.46875H54.0488C54.5176 5.46875 54.9355 5.51367 55.3027 5.60352C55.6738 5.69336 55.9883 5.83398 56.2461 6.02539C56.5078 6.21289 56.7051 6.45117 56.8379 6.74023C56.9746 7.0293 57.043 7.37305 57.043 7.77148C57.043 8.12305 56.959 8.44531 56.791 8.73828C56.623 9.02734 56.375 9.26367 56.0469 9.44727C55.7188 9.63086 55.3105 9.74023 54.8223 9.77539L54.3535 10.1445ZM54.2891 14H51.7168L52.3789 12.834H54.2891C54.6211 12.834 54.8984 12.7793 55.1211 12.6699C55.3438 12.5566 55.5098 12.4023 55.6191 12.207C55.7324 12.0078 55.7891 11.7754 55.7891 11.5098C55.7891 11.2324 55.7402 10.9922 55.6426 10.7891C55.5449 10.582 55.3906 10.4238 55.1797 10.3145C54.9688 10.2012 54.6934 10.1445 54.3535 10.1445H52.7012L52.7129 9.07227H54.8633L55.1973 9.47656C55.666 9.49219 56.0508 9.5957 56.3516 9.78711C56.6562 9.97852 56.8828 10.2266 57.0312 10.5312C57.1797 10.8359 57.2539 11.1641 57.2539 11.5156C57.2539 12.0586 57.1348 12.5137 56.8965 12.8809C56.6621 13.248 56.3242 13.5273 55.8828 13.7188C55.4414 13.9062 54.9102 14 54.2891 14ZM60.4355 13.3086L62.1582 7.66016H63.6699L61.127 14.9668C61.0684 15.123 60.9922 15.293 60.8984 15.4766C60.8047 15.6602 60.6816 15.834 60.5293 15.998C60.3809 16.166 60.1953 16.3008 59.9727 16.4023C59.75 16.5078 59.4805 16.5605 59.1641 16.5605C59.0391 16.5605 58.918 16.5488 58.8008 16.5254C58.6875 16.5059 58.5801 16.4844 58.4785 16.4609L58.4727 15.3828C58.5117 15.3867 58.5586 15.3906 58.6133 15.3945C58.6719 15.3984 58.7188 15.4004 58.7539 15.4004C58.9883 15.4004 59.1836 15.3711 59.3398 15.3125C59.4961 15.2578 59.623 15.168 59.7207 15.043C59.8223 14.918 59.9082 14.75 59.9785 14.5391L60.4355 13.3086ZM59.4629 7.66016L60.9688 12.4062L61.2207 13.8945L60.2422 14.1465L57.9395 7.66016H59.4629Z" fill="#C4C4C4"/>
<path d="M90.2722 9.94083L85.7515 2L76.6154 2.05917L72 10.0592L76.5207 18L85.6568 17.9408L90.2722 9.94083ZM82.4379 16.1065L77.5858 16.142L75.1834 11.929L76.2722 10.0355L78.1302 13.3136L79.8343 10.355L81.4438 11.2899L79.7396 14.2485L83.5148 14.2249L82.4379 16.1065ZM85.9881 9.9645L84.1302 6.68639L82.426 9.64497L80.8166 8.71006L82.5207 5.75148L78.7456 5.77515L79.8343 3.88166L84.6864 3.84615L87.0887 8.05917L85.9881 9.9645Z" fill="#C4C4C4"/>
<path d="M102.037 6.39046V4.75732H95.8004H94.1672V6.39046V9.3372V10.9822V13.6094V15.2425H102.037V13.6094H95.8004V10.9822H101.055V9.3372H95.8004V6.39046H102.037ZM123.516 8.08322V7.37279V7.36133V7.34912H125.161V7.36133V15.2189V15.2311H123.516V15.2189V14.4738C122.865 14.9471 122.073 15.2193 121.22 15.2193C119.055 15.2193 117.292 13.4678 117.292 11.2903L117.292 11.2842L117.292 11.2781C117.292 9.11244 119.043 7.34912 121.22 7.34912C121.795 7.34912 122.332 7.47459 122.819 7.69425C123.065 7.80156 123.298 7.93241 123.516 8.08322ZM118.925 11.2899C118.925 12.5562 119.954 13.5858 121.22 13.5858C122.487 13.5858 123.516 12.5562 123.516 11.2899C123.516 10.0237 122.487 8.99409 121.22 8.99409C119.954 8.99409 118.925 10.0237 118.925 11.2899ZM130.238 7.36084C132.404 7.36084 134.167 9.11232 134.167 11.2898C134.167 11.3017 134.167 11.3017 134.179 11.3253L134.179 11.3253V15.2543H132.534V11.3253V11.3135C132.534 10.0472 131.504 9.01764 130.238 9.01764C128.972 9.01764 127.942 10.0472 127.942 11.3135V11.3253V15.2543H126.297V7.38451H127.942V8.1064C128.593 7.63303 129.386 7.36084 130.238 7.36084ZM113.848 8.10665V7.38476H112.203V15.2546H113.848V11.3256V11.3138C113.848 10.0475 114.877 9.0179 116.144 9.0179V7.37293C115.28 7.36109 114.487 7.63328 113.848 8.10665ZM161.706 7.38476V8.10665C162.345 7.63328 163.138 7.36109 164.001 7.37293V9.0179C162.735 9.0179 161.706 10.0475 161.706 11.3138V11.3256V15.2546H160.061V7.38476H161.706ZM111.055 4.75732H107.942H106.309H103.197V6.39046H106.309V15.2425H107.942V6.39046H111.055V4.75732ZM137.8 9.01752H137.694C137.292 9.01752 136.96 9.34888 136.948 9.73942C136.948 10.1299 137.28 10.4731 137.682 10.4731H138.972H140.7H140.806C142.12 10.4731 143.185 11.5501 143.185 12.8518C143.185 14.1655 142.108 15.2305 140.806 15.2305H139.303H138.215H137.114V16.2128L135.315 14.414L137.114 12.6152V13.5974H138.215H138.972H139.303H140.806C141.197 13.5974 141.54 13.266 141.54 12.8637C141.54 12.4731 141.209 12.1299 140.806 12.1299H140.7H138.984H137.694C136.38 12.1299 135.315 11.053 135.315 9.75125C135.315 8.43764 136.392 7.37255 137.694 7.37255H137.8H140.7H140.806C141.007 7.37255 141.197 7.28971 141.327 7.15953L140.641 6.47314H143.185V9.01752L142.487 8.3193C142.049 8.74533 141.457 9.01752 140.806 9.01752H140.7H137.8ZM149.895 6.42562V4.79248C147.717 4.79248 145.966 6.5558 145.966 8.72148H144.333V10.3546H145.966V15.2777H147.599V10.3546H149.907V8.72148H147.599C147.599 7.4552 148.629 6.42562 149.895 6.42562ZM151.055 11.3372C151.055 9.17152 152.806 7.4082 154.984 7.4082C157.149 7.4082 158.913 9.17152 158.913 11.3372C158.913 11.6212 158.889 11.8934 158.83 12.1538H158.688H157.138H152.83C153.161 13.0295 154.002 13.6449 154.984 13.6449C155.623 13.6449 156.203 13.3845 156.617 12.9703L157.765 14.1183C157.055 14.8283 156.073 15.2662 154.984 15.2662C152.818 15.2662 151.055 13.5147 151.055 11.3372ZM154.984 9.04134C154.002 9.04134 153.161 9.66856 152.83 10.5325H157.138C156.806 9.65672 155.966 9.04134 154.984 9.04134Z" fill="#C4C4C4"/>
</svg>
